<?xml version="1.0" encoding="UTF-8"?>
<!DOCTYPE svg PUBLIC "-//W3C//DTD SVG 1.1//EN" "http://www.w3.org/Graphics/SVG/1.1/DTD/svg11.dtd">
<!-- Creator: CorelDRAW 2021 (64-Bit) -->
<svg xmlns="http://www.w3.org/2000/svg" xml:space="preserve" width="77.5356mm" height="6.7304mm" version="1.1" style="shape-rendering:geometricPrecision; text-rendering:geometricPrecision; image-rendering:optimizeQuality; fill-rule:evenodd; clip-rule:evenodd"
viewBox="0 0 7746.05 672.39"
 xmlns:xlink="http://www.w3.org/1999/xlink"
 xmlns:xodm="http://www.corel.com/coreldraw/odm/2003">
 <defs>
  <style type="text/css">
   <![CDATA[
    .fil0 {fill:#E31E24;fill-rule:nonzero}
   ]]>
  </style>
 </defs>
 <g id="Layer_x0020_1">
  <metadata id="CorelCorpID_0Corel-Layer"/>
  <path class="fil0" d="M21.84 634.58c-14.52,-9.41 -21.84,-22.8 -21.84,-39.84 0,-5.16 1.76,-14.56 5.41,-28.24l17.6 -67.79 19.34 -70.73 111.7 -381.21c6.43,-22.95 23,-34.42 49.96,-34.42 16.41,0 30.06,0.89 40.61,2.65l26.36 4.42c35.63,5.88 53.5,19.42 53.5,40.59 0,5.89 -0.27,10.6 -0.85,14.12 -2.35,7.06 -5.73,18.82 -10.56,35.44l-70.22 253.11 -23.02 92.65 -35.17 138.54c-6.45,24.71 -11.75,40.3 -15.81,46.76 -8.21,12.95 -21.98,19.41 -41.34,19.41 -19.22,0 -39.87,-3.24 -61.57,-9.7 -22.27,-5.87 -36.92,-11.17 -44.12,-15.74z"/>
  <path class="fil0" d="M691.35 337.07l3.37 -39.71 7.93 -39.56 15.1 -80.44 19.36 -75.74 18.3 -67.21c7.62,-13.52 19.06,-20.28 34.46,-20.28 9.81,0 18.89,1.17 27.25,3.67l12.18 3.38 28.99 8.83c26.52,8.24 39.72,22.36 39.72,42.51 0,9.26 -1.46,20.43 -4.52,33.38l-22.75 101.48 -34.29 137.65 -17.6 64.42 -28.99 100.59c-4.12,11.32 -11.61,33.25 -22.16,66.18 -5.25,17.06 -7.89,27.8 -7.89,31.92 0,0.59 0,1.18 0,1.76l1.01 4.28 3.54 13.38c1.02,4.71 1.62,7.94 1.62,9.7 0,14.58 -13.23,21.93 -39.42,21.93 -1.8,0 -3.84,0 -6.33,0 -2.21,0.58 -5.11,0.87 -8.79,0.87 -6.43,0 -15.82,-0.87 -28.15,-2.65 -6.41,-0.59 -14.65,-2.5 -24.63,-6.03l-7.73 -2.78 -16.71 -6.03c-17.61,-6.47 -29.63,-18.53 -36.05,-36.19 -1.8,-5.87 -5.27,-23.82 -10.57,-53.81l-3.66 -21.32 -8.81 -54.57 -6 -33.69 -28.16 -174.71 -4.39 27.35 -1.74 14.86 -10.55 68.97 -11.6 57.34 -17.43 76.94 -29.17 112.06c-5.86,22.8 -19.63,34.26 -41.17,34.26 -3.52,0 -9.38,-0.59 -17.59,-1.76 -31.67,-4.56 -51.01,-8.09 -58.04,-10.59 -22.88,-7.5 -34.33,-20.73 -34.33,-39.56 0,-6.48 2.37,-19.12 7.07,-37.95l0.89 -3.67 9.66 -34.27 15.81 -66.33 117.7 -435.02c3.67,-13.54 11.87,-20.3 24.79,-20.3 11.14,0 22.54,1.47 34.29,4.27l28.13 7.2c44.42,11.18 71.69,29.71 81.77,55.6l9.68 24.71 10.42 29.12c10.11,27.5 18.32,63.83 24.76,108.53l0 5.14 11.44 91.92z"/>
  <path class="fil0" d="M1035.34 180.01c-9.95,1.78 -18.02,3.84 -23.89,6.17l-23.6 9.72c-2.35,1.17 -4.39,1.76 -6.13,1.76 -0.6,0 -1.2,0 -1.79,0 -8.79,-1.17 -13.32,-5.59 -13.32,-13.24 0,-2.36 0.44,-5.01 1.16,-7.93l5.16 -18.54 25.5 -84.7c6.43,-22.36 21.1,-37.65 43.97,-45.9 3.54,-1.32 25.78,-5.44 66.85,-12.5 20.36,-3.38 39.12,-5.16 56.26,-5.16 12.33,0 29.33,1.19 51.02,3.39 71.36,7.65 129.13,34.12 173.23,79.57 43.38,45.73 65.11,104.56 65.11,176.47 0,38.1 -7.07,77.66 -21.28,118.25 -35.62,102.95 -102.16,182.07 -199.49,237.36 -56.27,31.78 -103.04,47.65 -139.97,47.65 -40.87,0 -76.63,-20.3 -107.11,-61.03l-35.21 -46.61c-3.49,-4.86 -5.28,-11.04 -5.28,-18.54 0,-24.71 10.57,-76.76 31.68,-156.18l6.88 -26.46 50.26 -183.55zm58.77 -19.41l12.46 2.51 29.03 7.2c35.17,8.83 52.77,25.87 52.77,51.17 0,17.21 -8.2,51.77 -24.62,104.13 -7.62,25.29 -16.41,59.12 -26.39,101.48l-7.19 30.73 -4.25 21.32 -1.76 7.2 -1.92 8.83c45.3,-5.29 84.59,-31.62 118,-78.67 28.74,-40.6 43.08,-85.15 43.08,-133.39 0,-83.98 -50.37,-126.03 -151.37,-126.03l-37.83 3.52z"/>
  <path class="fil0" d="M1534.99 500.32l-1.91 -23.68c0,-0.74 0,-1.63 0,-2.8 0,-7.05 1.77,-22.06 5.44,-45.01l5.25 -34.27 2.65 -11.61 4.26 -20.3 15.09 -59.86 51.87 -214.72c8.81,-35.14 15.99,-56.03 21.86,-62.64 9.53,-9.85 30.33,-14.86 62.56,-14.86l10.42 1.76 30.78 3.39c17,1.91 28.44,4.27 34.31,7.21 11.15,5.29 16.71,14.12 16.71,26.46 0,7.5 -2.65,22.06 -7.92,43.25l-76.35 310.74c-5.87,23.39 -8.81,40.89 -8.81,52.8 0,4.71 0.86,8.82 2.5,12.36 6.43,17.06 17.87,25.44 34.44,25.44 3.37,0 6.01,-0.3 7.92,-0.88 19.76,-2.79 37.08,-21.61 51.72,-56.34 4.71,-10.73 12.62,-37.04 23.77,-79.25l80.18 -299.28c12.29,-25.88 28.84,-38.83 49.96,-38.83 5.86,0 10.25,0.29 13.35,0.89l18.29 1.76 13.21 1.76c19.35,2.37 33.14,5.29 41.34,8.83 14.07,5.87 21.09,16.48 21.09,31.77 0,6.46 -1.44,15.88 -4.55,28.24l-22.71 97.06 -13.35 48.67 -18.44 70.45 -41.22 142.95c-11.72,39.99 -26.94,76.48 -45.71,109.56 -40.46,70.45 -97.33,105.74 -170.6,105.74 -83.13,0 -144.09,-30.3 -182.91,-90.89 -14.07,-22.35 -22.15,-47.63 -24.49,-75.88z"/>
  <path class="fil0" d="M2492.65 667.98c-101.43,0 -152.12,-82.96 -152.12,-248.84 0,-2.95 0,-5.89 0,-8.82 0,-20 5.85,-52.66 17.56,-97.81 19.95,-78.83 44.58,-138.09 73.9,-177.52 63.88,-87.06 134.53,-130.59 211.79,-130.59 42.77,0 76.49,10.3 101.12,31.04 27.12,21.62 40.6,53.38 40.6,95.15 0,67.06 -19.94,105.3 -59.94,114.56 -19.8,4.87 -36.49,7.2 -50.01,7.2 -28.71,0 -44.54,-9.41 -47.46,-28.22l6.89 -28.23c1.31,-5.29 1.88,-10 1.88,-14.28 0,-1.62 0,-3.38 0,-5.14 0,-10 -5.27,-15.89 -15.82,-17.65 -1.14,0 -2.35,0 -3.66,0 -19.94,0 -40.31,23.53 -61.4,70.73l-14.96 33.4c-26.37,59.4 -39.56,123.52 -39.56,192.35 0,23.54 9.36,35.3 28.12,35.3 15.67,0 31.24,-18.83 46.59,-56.48l5.15 -13.39c7.78,-19.41 25.06,-28.97 51.89,-28.97 7.03,0 12.61,0.15 16.84,0.73l7.94 0 27.25 2.8c25.21,2.37 37.8,13.54 37.8,33.54 0,5.29 -0.57,10.58 -1.75,15.89l-6.17 26.46 -2.64 7.93c-26.96,81.18 -69.02,136.19 -125.75,165.16 -31.05,15.73 -62.44,23.69 -94.1,23.69z"/>
  <path class="fil0" d="M3156.58 46.76l-1.74 34.56 37.8 -31.91 9.7 -8.82 18.44 -15.15c14.81,-11.63 27.12,-17.5 36.96,-17.5 27.08,0 46.16,26.76 57.29,80.14 7.03,33.54 10.55,71.64 10.55,113.98 0,61.77 -8.19,121.48 -24.79,178.98 -24.63,87.08 -59.94,154.42 -106.26,202.07 -56.26,58.38 -111.83,87.52 -166.33,87.52 -9.25,0 -20.08,-0.89 -32.41,-2.65 -58.17,-8.24 -103.63,-40.3 -136.31,-96.04 -21.82,-37.06 -32.66,-83.09 -32.66,-137.81 0,-56.47 12.86,-125.59 38.82,-207.51 2.33,-3.38 5.54,-9.56 9.68,-18.54 40.3,-88.66 91.88,-148.38 154.78,-178.98 39.84,-19.41 71.95,-29.11 96.58,-29.11 21.23,0 31.79,8.24 31.79,24.56 0,3.1 -0.29,6.61 -0.86,10.74 -0.75,5.87 -1.06,9.56 -1.06,11.47zm-17.43 81.33l-1.91 6.03 -4.22 12.5c-2.5,5.87 -4.56,10.73 -6.31,14.86l-1.63 3.53c-3.66,1.18 -13.03,7.35 -28.1,18.53 -46.48,33.53 -79.31,91.76 -98.65,174.7 -4.71,20.02 -7.05,41.78 -7.05,65.31 0,18.82 2.08,32.95 6.15,42.21 9.52,21.32 22.42,31.92 38.7,31.92 20.67,0 42.64,-20.88 65.96,-62.66 28.74,-51.18 44.86,-104.41 48.5,-159.72l3.37 -54.7 -0.85 -8.83 -0.74 -21.32c-1.17,-21.62 -5.59,-42.51 -13.22,-62.36z"/>
  <path class="fil0" d="M3695.53 387.37l-2.49 16.91 58.78 -125.45 29.9 -58.97 9.64 -17.65 74.64 -128.84 16.83 -24.71c14.67,-21.91 31.8,-32.79 51.01,-32.79 8.81,0 20.24,1.47 34.46,4.56l25.35 5.16 6.16 1.91 13.33 4.26c14.06,4.86 25.36,11.34 34.15,19.41 5.28,6.48 7.92,16.18 7.92,29.13 0,2.36 -0.3,6.02 -0.88,10.73 -0.57,4.56 -0.88,8.09 -0.88,10.59l-7.9 76.63 -11.44 86.48 -26.39 264.56c-2.94,30.01 -7.77,63.39 -14.07,99.85 -9.37,22.36 -28.71,33.54 -58.04,33.54 -3.5,0 -8.64,-0.29 -15.11,-0.88 -6.29,-0.58 -11.27,-0.88 -14.81,-0.88 -21.67,-2.35 -36.89,-5 -45.71,-7.94 -17.58,-5.88 -26.39,-16.46 -26.39,-31.91 0,-4.71 0.3,-8.82 0.9,-12.21l4.26 -24.86 1.14 -7.06 3.41 -18.53 5.4 -37.93 2.5 -13.99 4.37 -31.91c2.37,-13.38 7.07,-39.86 14.09,-79.27l2.64 -14.99 6.17 -24.86 5.98 -38.69 -13.02 23.1 -10.59 19.26 -22.83 46.05 -110.08 204.7c-9.82,18.24 -18.32,30.6 -25.21,37.06 -10.14,8.68 -23.91,13.09 -41.49,13.09 -42.21,0 -70.04,-7.64 -83.53,-22.8 -12.33,-12.93 -18.47,-36.17 -18.47,-69.84 0,-5.16 0.27,-10.74 0.87,-16.63l3.37 -70.73 2.05 -15.01 2.51 -25.6 2.63 -71.31 0.89 -4.56 2.77 -29.13 0 -30.88 -9.65 35.44 -11.57 37.06 -21.13 81.03 -11.44 51.19 -3.67 13.23 -13.9 52.06c-9.98,37.06 -17.6,59.71 -23.02,67.94 -6.88,11.18 -18.62,16.77 -35.19,16.77 -7.49,0 -18.04,-0.89 -31.52,-2.65l-15.1 -3.39c-33.25,-7.78 -49.96,-20.15 -49.96,-37.06 0,-5.87 5.56,-31.76 16.71,-77.79l18.46 -75.88 22.88 -73.98 19.17 -68.1 22.15 -74.11 38.69 -123.54c2.34,-5.29 6.59,-16.18 13.05,-32.65l12.46 -30.88c8.22,-20.59 16.41,-33.54 24.46,-38.83 7.78,-4.71 22.74,-7.06 44.87,-7.06l30.92 3.39c38.12,4.27 62.15,12.51 72.27,24.86 8.04,9.99 13.02,38.23 14.81,84.71l0.86 22.95 1.91 151.76c0,15.31 -1.45,38.54 -4.56,69.71l-1.75 17.65z"/>
  <path class="fil0" d="M4250.29 205.6c-12.33,14.12 -28.14,21.18 -47.31,21.18 -24.06,0 -36.07,-7.65 -36.07,-22.94 0,-8.09 0.42,-17.07 1.61,-26.48l4.53 -34.41 7.05 -25.74c12.89,-47.5 40.14,-78.69 81.76,-93.55 24.64,-8.67 68.03,-13.08 130.15,-13.08l35.18 0c8.21,1.76 15.56,2.95 22.01,3.39 53.92,7.04 97.9,27.93 131.75,62.79 34.17,34.72 51.13,78.83 51.13,132.21 0,35.9 -9.06,73.1 -27.25,111.48 -16.99,35.75 -38.97,66.63 -65.96,92.66 -26.94,26.3 -54.5,44.27 -82.65,53.53l-34.31 11.62c-12.3,4.11 -22.55,6.03 -30.78,6.03 -16.98,0 -26.08,-14.58 -27.25,-43.84l-0.87 -26.61 -0.76 -4.42 0 -31.76 -13.32 41.47 -56.31 229.28c-7,10.15 -19.04,15.14 -36.05,15.14 -4.68,0 -11.14,-0.58 -19.34,-1.76l-29.9 -4.42 -10.7 -2.65c-32.66,-8.22 -49.07,-20.58 -49.07,-37.05 0,-4.71 1.15,-12.21 3.37,-22.21l15.09 -63.39 14.96 -56.62 69.31 -269.87zm59.96 -22.8l12.29 2.5c51.61,11.19 77.56,28.53 77.56,51.92 0,5.29 -1.79,14.42 -5.44,27.35l-7.92 29.41 -8.92 27.36c37.08,-4.86 63.75,-22.51 80.16,-53.1 7.63,-14.12 11.42,-27.21 11.42,-39.56 0,-28.97 -14.95,-46.62 -44.82,-53.09 -13.52,-2.95 -26.4,-4.43 -38.73,-4.43 -17.56,0 -35.16,2.07 -52.91,6.18l-22.69 5.44z"/>
  <path class="fil0" d="M4990.87 46.76l-1.74 34.56 37.8 -31.91 9.68 -8.82 18.45 -15.15c14.81,-11.63 27.13,-17.5 36.95,-17.5 27.11,0 46.18,26.76 57.31,80.14 7.03,33.54 10.55,71.64 10.55,113.98 0,61.77 -8.21,121.48 -24.79,178.98 -24.63,87.08 -59.93,154.42 -106.26,202.07 -56.27,58.38 -111.83,87.52 -166.35,87.52 -9.23,0 -20.07,-0.89 -32.4,-2.65 -58.16,-8.24 -103.62,-40.3 -136.28,-96.04 -21.85,-37.06 -32.7,-83.09 -32.7,-137.81 0,-56.47 12.88,-125.59 38.84,-207.51 2.33,-3.38 5.54,-9.56 9.68,-18.54 40.3,-88.66 91.88,-148.38 154.78,-178.98 39.84,-19.41 71.93,-29.11 96.56,-29.11 21.25,0 31.8,8.24 31.8,24.56 0,3.1 -0.27,6.61 -0.85,10.74 -0.76,5.87 -1.06,9.56 -1.06,11.47zm-17.43 81.33l-1.91 6.03 -4.23 12.5c-2.51,5.87 -4.56,10.73 -6.32,14.86l-1.61 3.53c-3.66,1.18 -13.04,7.35 -28.12,18.53 -46.46,33.53 -79.29,91.76 -98.63,174.7 -4.7,20.02 -7.05,41.78 -7.05,65.31 0,18.82 2.08,32.95 6.14,42.21 9.53,21.32 22.45,31.92 38.71,31.92 20.67,0 42.64,-20.88 65.94,-62.66 28.76,-51.18 44.86,-104.41 48.52,-159.72l3.39 -54.7 -0.88 -8.83 -0.73 -21.32c-1.19,-21.62 -5.58,-42.51 -13.22,-62.36z"/>
  <path class="fil0" d="M5567.62 337.07l3.39 -39.71 7.92 -39.56 15.09 -80.44 19.34 -75.74 18.33 -67.21c7.6,-13.52 19.05,-20.28 34.45,-20.28 9.82,0 18.91,1.17 27.25,3.67l12.16 3.38 29.02 8.83c26.55,8.24 39.73,22.36 39.73,42.51 0,9.26 -1.49,20.43 -4.54,33.38l-22.72 101.48 -34.32 137.65 -17.6 64.42 -28.99 100.59c-4.12,11.32 -11.61,33.25 -22.14,66.18 -5.27,17.06 -7.92,27.8 -7.92,31.92 0,0.59 0,1.18 0,1.76l1.02 4.28 3.52 13.38c1.02,4.71 1.63,7.94 1.63,9.7 0,14.58 -13.19,21.93 -39.41,21.93 -1.79,0 -3.84,0 -6.31,0 -2.2,0.58 -5.13,0.87 -8.79,0.87 -6.46,0 -15.84,-0.87 -28.14,-2.65 -6.46,-0.59 -14.67,-2.5 -24.62,-6.03l-7.79 -2.78 -16.69 -6.03c-17.6,-6.47 -29.6,-18.53 -36.07,-36.19 -1.76,-5.87 -5.27,-23.82 -10.55,-53.81l-3.66 -21.32 -8.8 -54.57 -6 -33.69 -28.13 -174.71 -4.39 27.35 -1.8 14.86 -10.53 68.97 -11.58 57.34 -17.45 76.94 -29.17 112.06c-5.84,22.8 -19.61,34.26 -41.17,34.26 -3.54,0 -9.4,-0.59 -17.6,-1.76 -31.64,-4.56 -50.98,-8.09 -58.03,-10.59 -22.88,-7.5 -34.29,-20.73 -34.29,-39.56 0,-6.48 2.35,-19.12 7.01,-37.95l0.91 -3.67 9.65 -34.27 15.82 -66.33 117.7 -435.02c3.69,-13.54 11.89,-20.3 24.79,-20.3 11.14,0 22.56,1.47 34.31,4.27l28.11 7.2c44.43,11.18 71.69,29.71 81.81,55.6l9.66 24.71 10.4 29.12c10.12,27.5 18.32,63.83 24.78,108.53l0 5.14 11.42 91.92z"/>
  <path class="fil0" d="M5808.74 344c8.62,-47.06 26.24,-70.6 52.61,-70.6 2.93,0 6.88,0.59 11.59,1.91l11.42 -31.91 4.26 -13.1 5.43 -19.41 4.25 -19.41 3.66 -13.23 -10.54 -0.89c-26.52,-2.35 -39.72,-10.28 -39.72,-23.97 0,-1.76 1.15,-8.09 3.67,-19.41l4.26 -21.04 2.76 -7.94 5.15 -19.41c10.12,-35.88 20.65,-57.34 31.81,-64.42 8.2,-5.28 37.23,-7.93 87.04,-7.93l67.58 0 38.84 0.89 29.02 0 114.32 2.49c15.82,0.74 26.52,2.35 31.8,4.56 8.66,4.72 13.05,13.84 13.05,27.35 0,3.69 -0.6,8.68 -1.76,15.16l-2.5 13.98 -6.29 23.82 -2.5 8.97 -10.55 32.51c-5.86,18.83 -13.47,30.29 -23.01,34.41 -4.72,1.78 -15.25,2.65 -31.51,2.65 -4.24,0 -8.66,0 -13.35,0l-28.14 -0.87c-10.55,-1.78 -25.34,-2.65 -44.1,-2.65l-7.63 -0.89 -35.31 0 -16.72 -0.89 -24.62 -0.74c-1.78,0 -3.82,0 -6.31,0 -10.99,0 -23.87,1.04 -38.67,3.39l31.77 13.1c21.73,8.96 32.41,18.67 32.41,29.26 0,3.54 -0.74,7.78 -2.48,13.23l-5.44 23.84 -5.15 18.52 108.33 1.78c20.97,0.59 34.74,1.32 41.19,2.5 15.84,3.67 23.88,12.49 23.88,26.46 0,7.06 -1.91,17.06 -5.4,30.01l-10.55 37.93 -7.05 19.41c-5.86,15.88 -10.84,26.18 -14.79,31.04 -5.88,6.31 -14.97,9.56 -27.27,9.56 -1.32,0 -2.63,0 -3.65,0l-99.54 -3.38 -49.96 0.87 -5.44 13.97 -3.35 11.47 -3.54 10.74 -11.57 47.65 29.17 0.88 75.64 0c5.84,-0.58 9.67,-0.88 11.41,-0.88 1.19,0 2.35,0 3.39,0 45.31,0 67.86,10.58 67.86,31.62 0,4.27 -1.48,12.21 -4.43,23.97l-9.64 37.95c-5.27,21.02 -12.03,35.44 -20.24,43.23 -8.2,7.65 -21.85,11.47 -41.2,11.47 -1.31,0 -2.46,0 -3.67,0l-80.16 -1.76 -79 0c-22.26,0 -38.84,-1.77 -49.39,-5.28 -13.47,-4.71 -26.66,-14.43 -39.54,-29.13 -18.19,-21.17 -27.3,-44.55 -27.3,-69.86 0,-16.89 2.65,-35.44 7.96,-55.59l8.75 -33.38 9.7 -35.3c-20.97,0 -31.52,-11.62 -31.52,-34.57 0,-5.87 0.87,-12.35 2.65,-19.41l5.11 -21.04 2.8 -14.25z"/>
  <path class="fil0" d="M6639.63 337.07l3.35 -39.71 7.92 -39.56 15.12 -80.44 19.34 -75.74 18.31 -67.21c7.61,-13.52 19.05,-20.28 34.45,-20.28 9.82,0 18.93,1.17 27.25,3.67l12.18 3.38 29.02 8.83c26.54,8.24 39.71,22.36 39.71,42.51 0,9.26 -1.46,20.43 -4.54,33.38l-22.72 101.48 -34.3 137.65 -17.59 64.42 -29.02 100.59c-4.09,11.32 -11.57,33.25 -22.13,66.18 -5.25,17.06 -7.9,27.8 -7.9,31.92 0,0.59 0,1.18 0,1.76l1.02 4.28 3.51 13.38c1.02,4.71 1.62,7.94 1.62,9.7 0,14.58 -13.2,21.93 -39.42,21.93 -1.76,0 -3.82,0 -6.3,0 -2.21,0.58 -5.14,0.87 -8.8,0.87 -6.45,0 -15.81,-0.87 -28.14,-2.65 -6.43,-0.59 -14.64,-2.5 -24.62,-6.03l-7.77 -2.78 -16.68 -6.03c-17.6,-6.47 -29.63,-18.53 -36.07,-36.19 -1.79,-5.87 -5.27,-23.82 -10.58,-53.81l-3.66 -21.32 -8.79 -54.57 -6.01 -33.69 -28.13 -174.71 -4.38 27.35 -1.79 14.86 -10.55 68.97 -11.56 57.34 -17.43 76.94 -29.18 112.06c-5.86,22.8 -19.63,34.26 -41.2,34.26 -3.52,0 -9.36,-0.59 -17.57,-1.76 -31.67,-4.56 -51.01,-8.09 -58.03,-10.59 -22.88,-7.5 -34.3,-20.73 -34.3,-39.56 0,-6.48 2.33,-19.12 7.01,-37.95l0.89 -3.67 9.68 -34.27 15.82 -66.33 117.7 -435.02c3.67,-13.54 11.86,-20.3 24.76,-20.3 11.16,0 22.56,1.47 34.32,4.27l28.14 7.2c44.38,11.18 71.66,29.71 81.75,55.6l9.71 24.71 10.37 29.12c10.12,27.5 18.34,63.83 24.79,108.53l0 5.14 11.44 91.92z"/>
  <path class="fil0" d="M7164.93 168.69c-7.77,0 -15.1,0 -22.15,0 -9.36,0 -16.12,0.15 -20.21,0.73 -2.37,0 -3.41,0 -3.41,0 0,0 0.61,0 1.63,0l28.14 10.59 8.8 2.8 13.93 6.02c20.66,8.98 30.95,21.04 30.95,36.18 0,10.15 -6.6,38.97 -20.08,86.63l-1.91 6.02 -28.14 105.89 -17.62 60.01 -20.23 87.35 -13.02 47.65c-8.37,29.41 -28,44.12 -59.07,44.12 -3.95,0 -13.03,-0.59 -27.24,-1.76l-10.57 -1.03 -7.03 -1.77 -25.38 -6.03c-25.92,-6.46 -38.82,-17.93 -38.82,-34.41 0,-8.23 1.45,-17.36 4.56,-27.36l33.43 -112.05 11.41 -45.89 17.58 -67.06 16.69 -59.12 18.46 -61.77 16.58 -50.15c1.76,-5.29 2.81,-10.43 2.81,-15.14 0,-8.68 -2.38,-13.1 -7.19,-13.1 -0.46,0 -1.03,0 -1.61,0l-39.73 2.65 -42.95 -0.88c-18.77,-0.6 -31.65,-2.06 -38.85,-4.57 -12.87,-4.56 -19.35,-14.56 -19.35,-30l0 -13.08c0,-0.61 1.21,-5.59 3.68,-15.17l3.4 -15.87 2.63 -13.1 7.02 -21.17c6.46,-19.56 15.26,-31.62 26.39,-36.17 7.01,-3.09 22.86,-4.56 47.49,-4.56l56.27 0 245.35 5.44c15.26,0.58 26.39,1.6 33.4,3.38 12.93,3.67 19.36,11.32 19.36,23.08 0,6.47 -1.44,14.86 -4.56,25.45l-7.74 28.39 -1.02 6.02 -10.58 35.3c-5.83,20.6 -21.39,30.88 -46.43,30.88l-14.07 0c-1.76,-0.59 -5.27,-0.89 -10.43,-0.89l-45.72 -1.76 -44.85 -0.73z"/>
  <path class="fil0" d="M7409.12 495.17l-2.51 10.45c3.52,1.17 8.5,1.76 14.96,1.76 32.83,0 49.24,-12.65 49.24,-37.93 0,-7.66 -1.19,-15.17 -3.52,-22.21l-8.81 -25.3 -43.08 -76.19 -25.51 -40.45c-19.35,-30.58 -29.03,-62.06 -29.03,-94.42 0,-28.82 9.08,-56.9 27.28,-83.96l14.95 -22.08c14.67,-21.6 36.92,-41.01 66.83,-58.08 40.01,-22.95 82.82,-35.59 128.4,-37.93 11.16,-0.59 24.76,-0.89 40.6,-0.89l12.18 0c29.42,0 50.26,2.06 62.57,6.03 21.54,7.04 32.38,22.06 32.38,45.15 -0.59,5.88 -2.33,18.53 -5.11,37.94l-0.89 6.17 -7.03 33.69c-4.83,22.19 -10.4,37.19 -16.85,44.86 -8.07,9.41 -22.41,15.57 -43.08,18.52l-40.48 1.04c-1.61,0 -3.22,0 -4.38,0 -30.5,0 -45.76,-5.89 -45.76,-17.65 0,-2.5 1.19,-7.2 3.71,-14.28l-14.26 0c-27.55,3.69 -41.15,15.74 -41.15,36.18 0,11.77 4.22,24.7 13.01,38.82 4.13,5.87 11.61,17.65 22.16,35.31l12.17 21.17c34.74,59.41 52.04,110.3 52.04,152.65 0,100.59 -41.64,166.2 -125.05,196.78 -32.25,11.76 -70.93,17.65 -116.08,17.65 -21.1,0 -36.92,-0.89 -47.49,-2.65l-5.13 -0.89 -30.9 -4.56c-19.35,-2.8 -32.58,-10.15 -39.58,-21.92 -5.27,-9.41 -7.92,-25 -7.92,-46.76l2.65 -17.65 7 -39.69 7.06 -30.15c5.86,-25.31 11.14,-40.89 15.96,-46.78 7.47,-9.26 22.43,-13.97 44.55,-13.97l3.69 0 30.77 1.78c5.25,0.58 14.96,1.17 29.02,1.76 8.8,2.35 13.19,9.11 13.19,20.15 0,7.2 -0.89,16.61 -2.77,28.52z"/>
 </g>
</svg>
